<svg width="101" height="30" viewBox="0 0 101 30" fill="none" xmlns="http://www.w3.org/2000/svg">
<path d="M13.7733 0.67057L25.9017 8.43465C26.2054 8.63049 26.3952 8.97163 26.3952 9.33172V20.8862C26.3952 21.2526 26.2054 21.6001 25.889 21.7896L13.7607 29.3389C13.4127 29.5537 12.9762 29.5537 12.6282 29.3389L0.50614 21.7896C0.196129 21.5938 0 21.2526 0 20.8862V9.33172C0 8.96531 0.183476 8.63049 0.493486 8.43465L12.6219 0.67057C12.9762 0.443143 13.4254 0.443143 13.7733 0.67057ZM19.9925 12.8189H15.8991C15.684 12.8189 15.5132 12.6483 15.5132 12.4336V8.79474C15.5132 8.57995 15.3424 8.40938 15.1273 8.40938H11.2616C11.0465 8.40938 10.8757 8.57995 10.8757 8.79474V12.4336C10.8757 12.6483 10.7049 12.8189 10.4897 12.8189H6.39634C6.18123 12.8189 6.01041 12.9895 6.01041 13.2043V16.7862C6.01041 17.001 6.18123 17.1716 6.39634 17.1716H10.4897C10.7049 17.1716 10.8757 17.3422 10.8757 17.557V21.1958C10.8757 21.4106 11.0465 21.5811 11.2616 21.5811H15.1273C15.3424 21.5811 15.5132 21.4106 15.5132 21.1958V17.557C15.5132 17.3422 15.684 17.1716 15.8991 17.1716H19.9925C20.2076 17.1716 20.3785 17.001 20.3785 16.7862V13.2043C20.3785 12.9895 20.2076 12.8189 19.9925 12.8189Z" fill="url(#paint0_linear_240_8)"/>
<path d="M36.9102 17.2347L39.1436 17.02C39.2132 17.0136 39.2764 17.0642 39.2891 17.1337C39.4473 17.9107 39.7446 18.4856 40.1812 18.8583C40.643 19.25 41.263 19.4458 42.0476 19.4458C42.8764 19.4458 43.5027 19.2689 43.9203 18.9215C44.3378 18.574 44.5529 18.1634 44.5529 17.6896C44.5529 17.3864 44.4644 17.1337 44.2872 16.9189C44.1101 16.7041 43.8001 16.5209 43.3635 16.3693C43.0598 16.2682 42.3765 16.0787 41.301 15.8133C39.9218 15.4722 38.9538 15.0489 38.397 14.5562C37.6125 13.8549 37.2202 13.0021 37.2202 11.9913C37.2202 11.3406 37.4037 10.7341 37.7707 10.1719C38.1376 9.60965 38.6691 9.18007 39.365 8.88315C40.061 8.58623 40.8961 8.44093 41.8767 8.44093C43.4774 8.44093 44.6795 8.78839 45.4893 9.48962C46.2991 10.1908 46.6851 11.05 46.7547 12.1492C46.7547 12.2251 46.6977 12.3009 46.6155 12.3009L44.3062 12.4019C44.2366 12.4019 44.1797 12.3514 44.167 12.2882C44.0468 11.6944 43.819 11.2648 43.4774 10.9995C43.1168 10.7152 42.5727 10.5699 41.8451 10.5699C41.1175 10.5699 40.5102 10.7215 40.0863 11.0311C39.8142 11.2269 39.675 11.4922 39.675 11.8207C39.675 12.124 39.8016 12.3767 40.0546 12.5915C40.3773 12.8631 41.1681 13.1474 42.4208 13.4443C43.6735 13.7412 44.5972 14.0445 45.1983 14.3603C45.7993 14.6762 46.2675 15.1058 46.6091 15.6554C46.9508 16.205 47.1153 16.881 47.1153 17.6833C47.1153 18.4098 46.9128 19.0984 46.5079 19.7301C46.103 20.3619 45.5273 20.842 44.787 21.1515C44.0468 21.4611 43.1168 21.619 42.0096 21.619C40.3963 21.619 39.1562 21.2463 38.2958 20.5008C37.4354 19.7554 36.9545 18.7509 36.7647 17.399C36.7521 17.3169 36.8153 17.2411 36.8913 17.2347H36.9102Z" fill="url(#paint1_linear_240_8)"/>
<path d="M49.6273 8.89584C49.6273 8.76317 49.7348 8.65578 49.8677 8.65578H58.8454C58.9782 8.65578 59.0858 8.76317 59.0858 8.89584V10.5699C59.0858 10.7026 58.9782 10.81 58.8454 10.81H52.4427C52.3098 10.81 52.2023 10.9174 52.2023 11.0501V13.3938C52.2023 13.5265 52.3098 13.6339 52.4427 13.6339H58.3645C58.4974 13.6339 58.6049 13.7413 58.6049 13.8739V15.5417C58.6049 15.6744 58.4974 15.7818 58.3645 15.7818H52.4427C52.3098 15.7818 52.2023 15.8892 52.2023 16.0219V19.01C52.2023 19.1427 52.3098 19.25 52.4427 19.25H59.0858C59.2186 19.25 59.3262 19.3574 59.3262 19.4901V21.1579C59.3262 21.2906 59.2186 21.398 59.0858 21.398H49.8677C49.7348 21.398 49.6273 21.2906 49.6273 21.1579V8.89584Z" fill="url(#paint2_linear_240_8)"/>
<path d="M62.274 8.90847C62.274 8.76949 62.3879 8.65578 62.5271 8.65578H66.9811C68.044 8.65578 68.8538 8.7379 69.4105 8.89584C70.1571 9.11695 70.8024 9.50863 71.3339 10.0709C71.8653 10.6331 72.2702 11.3217 72.5486 12.1367C72.827 12.9516 72.9662 13.9561 72.9662 15.1437C72.9662 16.1924 72.8333 17.0958 72.5739 17.8539C72.2576 18.7826 71.8021 19.528 71.2073 20.1029C70.7581 20.5388 70.1571 20.8736 69.3979 21.12C68.8285 21.2969 68.0693 21.3916 67.1203 21.3916H62.5271C62.3879 21.3916 62.274 21.2779 62.274 21.1389V8.90847ZM64.849 11.0627V18.9974C64.849 19.1363 64.9628 19.25 65.102 19.25H66.7723C67.4935 19.25 68.0123 19.2121 68.3287 19.13C68.7462 19.0289 69.0942 18.8521 69.3663 18.5994C69.6383 18.3467 69.8661 17.9423 70.0432 17.3675C70.2204 16.7926 70.3026 16.0219 70.3026 15.0363C70.3026 14.0508 70.214 13.2991 70.0432 12.7684C69.8724 12.2377 69.6257 11.8334 69.3156 11.5365C69.0056 11.2396 68.6071 11.0438 68.1262 10.9364C67.7656 10.8542 67.0633 10.8163 66.0131 10.8163H65.1084C64.9692 10.8163 64.8553 10.93 64.8553 11.069L64.849 11.0627Z" fill="url(#paint3_linear_240_8)"/>
<path d="M86.3096 21.3916H83.994C83.8991 21.3916 83.8168 21.3348 83.7852 21.2463L82.7793 18.6373C82.7476 18.5488 82.6654 18.492 82.5705 18.492H77.7811C77.6862 18.492 77.604 18.5488 77.5723 18.6373L76.6296 21.2337C76.598 21.3221 76.5158 21.379 76.4209 21.379H74.1749C74.0167 21.379 73.9091 21.2211 73.9661 21.0758L78.7618 8.78844C78.7934 8.69999 78.8756 8.64945 78.9705 8.64945H81.3874C81.4759 8.64945 81.5582 8.70631 81.5962 8.78844L86.5247 21.0758C86.5816 21.2211 86.4741 21.379 86.3159 21.379L86.3096 21.3916ZM81.786 16.0534L80.3498 12.1935C80.2802 11.9977 80.0018 11.9977 79.9322 12.1935L78.5277 16.0534C78.4771 16.1987 78.5846 16.3504 78.7365 16.3504H81.5772C81.7353 16.3504 81.8429 16.1987 81.786 16.0471V16.0534Z" fill="url(#paint4_linear_240_8)"/>
<path d="M88.6881 21.259V8.78845C88.6881 8.71896 88.7451 8.6621 88.8147 8.6621H92.4399C92.4969 8.6621 92.5475 8.70001 92.5665 8.75686L94.7302 16.8747C94.7618 17.0011 94.9453 17.0011 94.9769 16.8747L97.1154 8.75686C97.128 8.70001 97.1786 8.6621 97.2419 8.6621H100.873C100.943 8.6621 101 8.71896 101 8.78845V21.2653C101 21.3348 100.943 21.3917 100.873 21.3917H98.7414C98.6718 21.3917 98.6148 21.3348 98.6148 21.2653V12.4083C98.6148 12.2567 98.3997 12.2314 98.3618 12.3767L96.1094 21.2969C96.0968 21.3537 96.0462 21.3917 95.9829 21.3917H93.7053C93.6483 21.3917 93.5914 21.3537 93.5787 21.2969L91.3327 12.383C91.2948 12.2377 91.0797 12.263 91.0797 12.4146V21.2653C91.0797 21.3348 91.0227 21.3917 90.9531 21.3917H88.821C88.7514 21.3917 88.6945 21.3348 88.6945 21.2653L88.6881 21.259Z" fill="url(#paint5_linear_240_8)"/>
<defs>
<linearGradient id="paint0_linear_240_8" x1="0.0303302" y1="8.23333" x2="100.946" y2="25.77" gradientUnits="userSpaceOnUse">
<stop stop-color="#41C0C9"/>
<stop offset="0.86981" stop-color="#116997"/>
<stop offset="1" stop-color="#0A5C8F"/>
</linearGradient>
<linearGradient id="paint1_linear_240_8" x1="0.0303302" y1="8.23333" x2="100.946" y2="25.77" gradientUnits="userSpaceOnUse">
<stop stop-color="#41C0C9"/>
<stop offset="0.86981" stop-color="#116997"/>
<stop offset="1" stop-color="#0A5C8F"/>
</linearGradient>
<linearGradient id="paint2_linear_240_8" x1="0.0303302" y1="8.23333" x2="100.946" y2="25.77" gradientUnits="userSpaceOnUse">
<stop stop-color="#41C0C9"/>
<stop offset="0.86981" stop-color="#116997"/>
<stop offset="1" stop-color="#0A5C8F"/>
</linearGradient>
<linearGradient id="paint3_linear_240_8" x1="0.0303302" y1="8.23333" x2="100.946" y2="25.77" gradientUnits="userSpaceOnUse">
<stop stop-color="#41C0C9"/>
<stop offset="0.86981" stop-color="#116997"/>
<stop offset="1" stop-color="#0A5C8F"/>
</linearGradient>
<linearGradient id="paint4_linear_240_8" x1="0.0303302" y1="8.23333" x2="100.946" y2="25.77" gradientUnits="userSpaceOnUse">
<stop stop-color="#41C0C9"/>
<stop offset="0.86981" stop-color="#116997"/>
<stop offset="1" stop-color="#0A5C8F"/>
</linearGradient>
<linearGradient id="paint5_linear_240_8" x1="0.0303302" y1="8.23333" x2="100.946" y2="25.77" gradientUnits="userSpaceOnUse">
<stop stop-color="#41C0C9"/>
<stop offset="0.86981" stop-color="#116997"/>
<stop offset="1" stop-color="#0A5C8F"/>
</linearGradient>
</defs>
</svg>
